<svg id="tattoo_real" xmlns="http://www.w3.org/2000/svg" viewBox="0 0 200 148.57">
  <title>tattoo_03</title>
  <g>
    <path d="M225,72.27V52c-11.05,2-20.75,4.4-31.71,3.48-10.05-.84-17.58-4-27.76-1.83C149.34,57.06,140.9,53.88,125,52c-15.68-1.85-31.21,1.86-46.74,2.34C60.66,54.88,42.8,52,25,52V72.27C43,74.2,61.13,75.71,79.13,78c7,0.87,14.14,2.63,21.18,1.92,8.63-.87,16.17-7.06,24.69-7.61,13.3-.86,28,7.08,41.89,7.32C186.08,79.92,205.34,73.67,225,72.27Z" transform="translate(-25 -51.49)"/>
    <path d="M25,109.51c18.56,0,36.17,5.64,54,5.64,15.4,0,30.34-3.56,46-1.65,15.28,1.86,24.5,5.09,39.78,2.39,20-3.54,40-4.95,60.22-6.38V90.33c-20.19.05-39.1,2.33-59.14,4.21-15,1.41-26.32-3.51-40.86-4.08-15.16-.6-30.54,5.8-45.88,5.59-18-.25-35.47-5.75-54.12-5.72v19.18Z" transform="translate(-25 -51.49)"/>
    <path d="M25,149.57c18.11,1.39,35.7,1.15,53.83.86,6.81-.11,14.35-0.85,21.05.56,9.09,1.9,15.85,8,25.11,10,13.87,3.09,27.44-.92,40.7-3.27,20-3.53,39.32-3.71,59.3-8.17V128.65c-19.86,2.21-38.87,6.39-58.53,9.22-15.4,2.22-26.25-1.25-41.47-2.94-15-1.67-30.37.52-45.42-.63C61.12,132.9,43.84,128.8,25,128.65v20.92Z" transform="translate(-25 -51.49)"/>
    <path d="M25,167v25.85c17.63,0,35.75,4.81,52.84,3.66,7.49-.5,14.32-3.43,21.86-3.08,8.93,0.42,16.33,4.8,25.3,6,13.62,1.8,28.31-.53,41.77-2.17,19.49-2.37,38.68-1.49,58.23-4.4V167c-20.14,4.59-39.08,4.07-59.2,7.36-13,2.12-27.23,6.85-40.8,4-9.51-2-15.94-8.82-25.25-10.7-6.78-1.37-14.35-.2-21.21.06A477,477,0,0,1,25,167Z" transform="translate(-25 -51.49)"/>
  </g>
</svg>
