<svg id="tattoo_02" xmlns="http://www.w3.org/2000/svg" viewBox="0 0 190.54 171.35">
  <title>tattoo_02</title>
  <g>
    <path d="M220.27,210.68v-1.13q-95.27-.12-190.54,0v1.13H220.27Z" transform="translate(-29.73 -39.32)"/>
    <path d="M220.27,199.33v-1.13c-31.67.68-63.63,5.07-95.27,4.67s-63.26-4.67-95.27-4.67v1.13c32,0,63.53,3.88,95.27,4.21S188.57,199.86,220.27,199.33Z" transform="translate(-29.73 -39.32)"/>
    <path d="M220.27,188v-1.13C189,189.3,156.53,197.26,125,195.91c-16-.68-30.83-7.79-46.81-9s-32.47,0-48.46,0V188c16,0,32.5-1.15,48.46,0S109,196,125,196.64C156.53,197.89,188.93,190.25,220.27,188Z" transform="translate(-29.73 -39.32)"/>
    <path d="M220.27,176.63V175.5c-31.16,3.94-63.42,14.42-95.26,12.27-16.39-1.1-30.5-10.59-46.82-12.24-15.8-1.59-32.58,0-48.46,0v1.13c15.89,0,32.65-1.53,48.46,0,16.29,1.62,30.46,10.93,46.82,12C156.81,190.77,189.11,180.48,220.27,176.63Z" transform="translate(-29.73 -39.32)"/>
    <path d="M220.27,165.28v-1.13c-31,4.12-63.55,15.67-95.26,13.42-16.62-1.18-30.27-11.74-46.82-13.42-15.78-1.6-32.6,0-48.46,0v1.13c15.87,0,32.68-1.6,48.46,0C94.72,167,108.42,177.38,125,178.56,156.86,180.83,189.19,169.43,220.27,165.28Z" transform="translate(-29.73 -39.32)"/>
    <path d="M220.27,153.94V152.8c-17.68,1.74-35.89,4.4-53.43,7.31C153,162.41,139.25,170,125,169.27c-17.11-.86-29.86-14.37-46.82-16.46-15.61-1.93-32.73,0-48.46,0v1.13c15.75,0,32.83-1.88,48.46,0C95.1,156,108,169.09,125,170c14.18,0.76,28-6.32,41.85-8.49C184.49,158.74,202.53,155.78,220.27,153.94Z" transform="translate(-29.73 -39.32)"/>
    <path d="M220.27,142.59v-1.13c-17,.67-37.18.22-53.67,4.5-14.28,3.71-26.43,16.59-41.6,16.3-17.76-.34-29.32-18.18-46.81-20.78-15.39-2.29-32.9,0-48.46,0v1.13c15.59,0,33-2.21,48.46,0,17.45,2.53,29.11,20,46.81,20.35,15.07,0.33,27.38-12,41.62-15.6C183.22,143.22,203.2,143.36,220.27,142.59Z" transform="translate(-29.73 -39.32)"/>
    <path d="M220.27,131.24v-1.13c-16.52,0-38.09-2.87-53.85,2.32C151.78,137.25,141,154.25,125,154.24c-18.24,0-28.93-21-46.81-24.1-15.15-2.6-33.08,0-48.46,0v1.13c15.39,0,33.3-2.55,48.46,0,17.85,3,28.61,23.85,46.81,23.88,16,0,26.83-16.69,41.43-21.44C182.23,128.57,203.73,131.27,220.27,131.24Z" transform="translate(-29.73 -39.32)"/>
    <path d="M220.27,119.89v-1.13c-16.7,0-37.94-4-53.93,1.32-14.66,4.84-25.28,21.84-41.35,21.83-18,0-28.8-20.49-46.47-23.52-15.28-2.62-33.29.35-48.79,0.37v1.13c15.47,0,33.45-2.87,48.69-.24,17.75,3.07,28.46,23.84,46.57,23.85,16.11,0,26.69-17.2,41.37-22.09C182.29,116.11,203.6,119.89,220.27,119.89Z" transform="translate(-29.73 -39.32)"/>
    <path d="M220.27,108.55v-1.13c-17.05-.9-37.47-6.82-54.16-2.42-14.51,3.82-25.6,17.85-41.09,17.89-16.73,0-28.28-15.89-44.77-18.11-16-2.16-34.38,2.09-50.52,2.65v1.13c16.05-.49,34.4-4.61,50.31-2.36,16.62,2.34,28.1,18.79,45,18.77,15.56,0,26.6-14.41,41.12-18.36C182.75,102.07,203.26,107.76,220.27,108.55Z" transform="translate(-29.73 -39.32)"/>
    <path d="M220.27,97.2V96.06C202.72,94,183.48,86,165.83,88.95c-14.29,2.4-25.93,12.94-40.76,13.11-15.23.17-27.55-10.47-42.68-11.49-17.13-1.15-35.56,4.18-52.66,5.49V97.2C46.74,96,65.17,90.71,82.19,92c15.26,1.12,27.51,12.26,42.87,12.1,14.89-.15,26.46-11,40.79-13.55C183.42,87.42,202.77,95.21,220.27,97.2Z" transform="translate(-29.73 -39.32)"/>
    <path d="M220.27,85.85V84.72c-18-2.76-36.26-12-54.62-9.93-14,1.62-26.26,9.69-40.56,10S97.94,77.89,83.72,77.5c-17.85-.49-36.23,5.5-54,7.22v1.13c17.73-1.71,36.11-7.64,53.93-7.14,14.27,0.4,27.11,7.73,41.43,7.46S151.63,77.69,165.65,76C184,73.89,202.29,83.1,220.27,85.85Z" transform="translate(-29.73 -39.32)"/>
    <path d="M220.27,74.5V73.37c-18.05-2.56-36.23-10.7-54.55-8.86-13.89,1.4-26.54,8.28-40.64,8.54-14.29.27-27.67-5.82-41.92-6.15-17.69-.41-35.82,4.89-53.43,6.47V74.5c17.65-1.62,35.84-7.08,53.57-6.65,14.22,0.34,27.52,6.6,41.78,6.33s26.72-7.35,40.62-8.78C184,63.5,202.22,71.88,220.27,74.5Z" transform="translate(-29.73 -39.32)"/>
    <path d="M220.27,63.16V62c-18.08-1.52-36.11-6.58-54.29-5.44-13.79.87-27.07,5.1-40.94,5.28-14.72.19-29.1-3.63-43.81-3.8-17.15-.2-34.39,3-51.51,4v1.13c17.18-1,34.51-4.46,51.73-4.25C96.1,59.09,110.39,63.17,125,63c13.88-.19,27.11-4.72,40.9-5.64C184.15,56.11,202.19,61.51,220.27,63.16Z" transform="translate(-29.73 -39.32)"/>
    <path d="M220.27,51.81V50.67c-63.54-1.25-126.95-.83-190.54,0v1.13C93.34,50.75,156.73,50.22,220.27,51.81Z" transform="translate(-29.73 -39.32)"/>
    <path d="M220.27,40.46V39.32H29.73v1.13Q125,40.56,220.27,40.46Z" transform="translate(-29.73 -39.32)"/>
  </g>
</svg>
