<svg xmlns="http://www.w3.org/2000/svg">

  <symbol id="tattoo_01"  viewBox="0 0 200 144">
    <title>tattoo_01</title>
    <rect width="200" height="15"/>
    <rect y="43" width="200" height="15"/>
    <rect y="86" width="200" height="15"/>
    <rect y="129" width="200" height="15"/>
  </symbol>

  <symbol id="tattoo_02" viewBox="0 0 190.54 171.35">
    <g>
      <path d="M220.27,210.68v-1.13q-95.27-.12-190.54,0v1.13H220.27Z" transform="translate(-29.73 -39.32)"/>
      <path d="M220.27,199.33v-1.13c-31.67.68-63.63,5.07-95.27,4.67s-63.26-4.67-95.27-4.67v1.13c32,0,63.53,3.88,95.27,4.21S188.57,199.86,220.27,199.33Z" transform="translate(-29.73 -39.32)"/>
      <path d="M220.27,188v-1.13C189,189.3,156.53,197.26,125,195.91c-16-.68-30.83-7.79-46.81-9s-32.47,0-48.46,0V188c16,0,32.5-1.15,48.46,0S109,196,125,196.64C156.53,197.89,188.93,190.25,220.27,188Z" transform="translate(-29.73 -39.32)"/>
      <path d="M220.27,176.63V175.5c-31.16,3.94-63.42,14.42-95.26,12.27-16.39-1.1-30.5-10.59-46.82-12.24-15.8-1.59-32.58,0-48.46,0v1.13c15.89,0,32.65-1.53,48.46,0,16.29,1.62,30.46,10.93,46.82,12C156.81,190.77,189.11,180.48,220.27,176.63Z" transform="translate(-29.73 -39.32)"/>
      <path d="M220.27,165.28v-1.13c-31,4.12-63.55,15.67-95.26,13.42-16.62-1.18-30.27-11.74-46.82-13.42-15.78-1.6-32.6,0-48.46,0v1.13c15.87,0,32.68-1.6,48.46,0C94.72,167,108.42,177.38,125,178.56,156.86,180.83,189.19,169.43,220.27,165.28Z" transform="translate(-29.73 -39.32)"/>
      <path d="M220.27,153.94V152.8c-17.68,1.74-35.89,4.4-53.43,7.31C153,162.41,139.25,170,125,169.27c-17.11-.86-29.86-14.37-46.82-16.46-15.61-1.93-32.73,0-48.46,0v1.13c15.75,0,32.83-1.88,48.46,0C95.1,156,108,169.09,125,170c14.18,0.76,28-6.32,41.85-8.49C184.49,158.74,202.53,155.78,220.27,153.94Z" transform="translate(-29.73 -39.32)"/>
      <path d="M220.27,142.59v-1.13c-17,.67-37.18.22-53.67,4.5-14.28,3.71-26.43,16.59-41.6,16.3-17.76-.34-29.32-18.18-46.81-20.78-15.39-2.29-32.9,0-48.46,0v1.13c15.59,0,33-2.21,48.46,0,17.45,2.53,29.11,20,46.81,20.35,15.07,0.33,27.38-12,41.62-15.6C183.22,143.22,203.2,143.36,220.27,142.59Z" transform="translate(-29.73 -39.32)"/>
      <path d="M220.27,131.24v-1.13c-16.52,0-38.09-2.87-53.85,2.32C151.78,137.25,141,154.25,125,154.24c-18.24,0-28.93-21-46.81-24.1-15.15-2.6-33.08,0-48.46,0v1.13c15.39,0,33.3-2.55,48.46,0,17.85,3,28.61,23.85,46.81,23.88,16,0,26.83-16.69,41.43-21.44C182.23,128.57,203.73,131.27,220.27,131.24Z" transform="translate(-29.73 -39.32)"/>
      <path d="M220.27,119.89v-1.13c-16.7,0-37.94-4-53.93,1.32-14.66,4.84-25.28,21.84-41.35,21.83-18,0-28.8-20.49-46.47-23.52-15.28-2.62-33.29.35-48.79,0.37v1.13c15.47,0,33.45-2.87,48.69-.24,17.75,3.07,28.46,23.84,46.57,23.85,16.11,0,26.69-17.2,41.37-22.09C182.29,116.11,203.6,119.89,220.27,119.89Z" transform="translate(-29.73 -39.32)"/>
      <path d="M220.27,108.55v-1.13c-17.05-.9-37.47-6.82-54.16-2.42-14.51,3.82-25.6,17.85-41.09,17.89-16.73,0-28.28-15.89-44.77-18.11-16-2.16-34.38,2.09-50.52,2.65v1.13c16.05-.49,34.4-4.61,50.31-2.36,16.62,2.34,28.1,18.79,45,18.77,15.56,0,26.6-14.41,41.12-18.36C182.75,102.07,203.26,107.76,220.27,108.55Z" transform="translate(-29.73 -39.32)"/>
      <path d="M220.27,97.2V96.06C202.72,94,183.48,86,165.83,88.95c-14.29,2.4-25.93,12.94-40.76,13.11-15.23.17-27.55-10.47-42.68-11.49-17.13-1.15-35.56,4.18-52.66,5.49V97.2C46.74,96,65.17,90.71,82.19,92c15.26,1.12,27.51,12.26,42.87,12.1,14.89-.15,26.46-11,40.79-13.55C183.42,87.42,202.77,95.21,220.27,97.2Z" transform="translate(-29.73 -39.32)"/>
      <path d="M220.27,85.85V84.72c-18-2.76-36.26-12-54.62-9.93-14,1.62-26.26,9.69-40.56,10S97.94,77.89,83.72,77.5c-17.85-.49-36.23,5.5-54,7.22v1.13c17.73-1.71,36.11-7.64,53.93-7.14,14.27,0.4,27.11,7.73,41.43,7.46S151.63,77.69,165.65,76C184,73.89,202.29,83.1,220.27,85.85Z" transform="translate(-29.73 -39.32)"/>
      <path d="M220.27,74.5V73.37c-18.05-2.56-36.23-10.7-54.55-8.86-13.89,1.4-26.54,8.28-40.64,8.54-14.29.27-27.67-5.82-41.92-6.15-17.69-.41-35.82,4.89-53.43,6.47V74.5c17.65-1.62,35.84-7.08,53.57-6.65,14.22,0.34,27.52,6.6,41.78,6.33s26.72-7.35,40.62-8.78C184,63.5,202.22,71.88,220.27,74.5Z" transform="translate(-29.73 -39.32)"/>
      <path d="M220.27,63.16V62c-18.08-1.52-36.11-6.58-54.29-5.44-13.79.87-27.07,5.1-40.94,5.28-14.72.19-29.1-3.63-43.81-3.8-17.15-.2-34.39,3-51.51,4v1.13c17.18-1,34.51-4.46,51.73-4.25C96.1,59.09,110.39,63.17,125,63c13.88-.19,27.11-4.72,40.9-5.64C184.15,56.11,202.19,61.51,220.27,63.16Z" transform="translate(-29.73 -39.32)"/>
      <path d="M220.27,51.81V50.67c-63.54-1.25-126.95-.83-190.54,0v1.13C93.34,50.75,156.73,50.22,220.27,51.81Z" transform="translate(-29.73 -39.32)"/>
      <path d="M220.27,40.46V39.32H29.73v1.13Q125,40.56,220.27,40.46Z" transform="translate(-29.73 -39.32)"/>
    </g>
  </symbol>

  <symbol id="tattoo_03" viewBox="0 0 200 148.57">
    <g>
      <path d="M225,72.27V52c-11.05,2-20.75,4.4-31.71,3.48-10.05-.84-17.58-4-27.76-1.83C149.34,57.06,140.9,53.88,125,52c-15.68-1.85-31.21,1.86-46.74,2.34C60.66,54.88,42.8,52,25,52V72.27C43,74.2,61.13,75.71,79.13,78c7,0.87,14.14,2.63,21.18,1.92,8.63-.87,16.17-7.06,24.69-7.61,13.3-.86,28,7.08,41.89,7.32C186.08,79.92,205.34,73.67,225,72.27Z" transform="translate(-25 -51.49)"/>
      <path d="M25,109.51c18.56,0,36.17,5.64,54,5.64,15.4,0,30.34-3.56,46-1.65,15.28,1.86,24.5,5.09,39.78,2.39,20-3.54,40-4.95,60.22-6.38V90.33c-20.19.05-39.1,2.33-59.14,4.21-15,1.41-26.32-3.51-40.86-4.08-15.16-.6-30.54,5.8-45.88,5.59-18-.25-35.47-5.75-54.12-5.72v19.18Z" transform="translate(-25 -51.49)"/>
      <path d="M25,149.57c18.11,1.39,35.7,1.15,53.83.86,6.81-.11,14.35-0.85,21.05.56,9.09,1.9,15.85,8,25.11,10,13.87,3.09,27.44-.92,40.7-3.27,20-3.53,39.32-3.71,59.3-8.17V128.65c-19.86,2.21-38.87,6.39-58.53,9.22-15.4,2.22-26.25-1.25-41.47-2.94-15-1.67-30.37.52-45.42-.63C61.12,132.9,43.84,128.8,25,128.65v20.92Z" transform="translate(-25 -51.49)"/>
      <path d="M25,167v25.85c17.63,0,35.75,4.81,52.84,3.66,7.49-.5,14.32-3.43,21.86-3.08,8.93,0.42,16.33,4.8,25.3,6,13.62,1.8,28.31-.53,41.77-2.17,19.49-2.37,38.68-1.49,58.23-4.4V167c-20.14,4.59-39.08,4.07-59.2,7.36-13,2.12-27.23,6.85-40.8,4-9.51-2-15.94-8.82-25.25-10.7-6.78-1.37-14.35-.2-21.21.06A477,477,0,0,1,25,167Z" transform="translate(-25 -51.49)"/>
    </g>
  </symbol>


  <symbol id="content" viewBox="0 0 162 192">
    <path d="M190,37V27H42V207H56v12H204V37H190ZM47,32H185V202H47V32ZM199,214H61v-7H190V42h9V214Z" transform="translate(-42 -27)"/>
    <rect x="20" y="31" width="74" height="4"/>
    <rect x="20" y="51" width="101.27" height="4"/>
    <rect x="20" y="71" width="84.05" height="4"/>
    <rect x="20" y="91" width="92.46" height="4"/>
  </symbol>

  <svg id="barcode"  viewBox="0 0 200.43 178.03">
    <g>
      <rect width="3.94" height="178.03"/>
      <rect x="14.72" width="4.94" height="178.03"/>
      <rect x="26.4" width="8.08" height="178.03"/>
      <rect x="38.56" width="11.5" height="178.03"/>
      <rect x="54.19" width="5.06" height="178.03"/>
      <rect x="63.39" width="10.12" height="178.03"/>
      <rect x="78.11" width="4.6" height="178.03"/>
      <rect x="93.74" width="4.6" height="178.03"/>
      <rect x="102.94" width="4.6" height="178.03"/>
      <rect x="109.84" width="11.5" height="178.03"/>
      <rect x="125.93" width="4.6" height="178.03"/>
      <rect x="134.67" width="11.04" height="178.03"/>
      <rect x="156.28" width="5.06" height="178.03"/>
      <rect x="165.48" width="5.52" height="178.03"/>
      <rect x="173.75" width="10.58" height="178.03"/>
      <rect x="188.01" width="12.42" height="178.03"/>
    </g>
  </svg>

  <svg id="future" viewBox="0 0 250 250">
  <line class="st0" x1="0" y1="21" x2="250" y2="20"/>
  <path class="st1" d="M248,36c-13,0-26-2-39,1c-43,7-84,12-127,11c-28-6-56-9-84-14c0.1,0.2,18.2,3.2,0.4,0.5"/>
  <path d="M238.7,76.2c-7.6-0.3-15.2-1.2-22.8-1.3c-7.6-0.1-15,0.4-22.5-0.9c-0.3,0.1-0.7,0.1-1.1,0.1c0,0-0.1,0-0.1,0
  	c-0.8,0.7-1.8,1.1-3.2,1.1c-0.6,0-1.2-0.1-1.7-0.3c-0.8,0.4-1.6,0.9-2.3,1.4l65.5,3.1C246.3,78.3,242.4,77.2,238.7,76.2z"/>
  <path d="M180.9,76.2c-0.2,2.1-1.6,4-4.1,4.3c-0.2,0.5-0.5,0.9-0.8,1.3c-0.2,1.8-1.1,3.5-3,4.2c-0.1,0.3-0.2,0.6-0.4,0.9
  	c-0.2,0.4-0.5,0.8-0.9,1.1c-0.4,2-2,3.8-4.7,3.8c-2.4,0-3.9-1.4-4.5-3.2c-1.2-0.3-2.1-1-2.7-1.9c-0.4,0.1-0.8,0.1-1.2,0.1
  	c-0.3,0-0.7,0-1-0.1c-0.3,0.1-0.6,0.1-0.9,0.1c-1.6,0-2.8-0.6-3.6-1.5c-0.8,0.6-1.8,1-3,1c-0.8,0-1.5-0.2-2-0.4
  	c-0.6,0.3-1.3,0.4-2.1,0.4c-0.6,0-1.2-0.1-1.6-0.2c-0.6,0.3-1.4,0.5-2.3,0.5c-0.6,0-1.2,0-1.8,0c-3.3,1.3-6.6,2.7-9.8,4
  	c-6.5,2.6-16.9,4.2-23.2,0.3c-0.4-0.3-0.8-0.6-1.2-0.9c-0.6,0.3-1.3,0.4-2.1,0.4c-1.2,0-2.1-0.3-2.9-0.9c-0.5,0-1.1,0.1-1.6,0.1
  	c-2.3,0-3.7-1.2-4.4-2.8c-0.4,0-0.9-0.1-1.3-0.2c-0.4,0.1-0.9,0.2-1.4,0.2c-1.7,0-3-0.7-3.8-1.8c-0.4,0.1-0.7,0.1-1.2,0.1
  	c-2.3,0-3.7-1.2-4.4-2.9c-0.3-0.1-0.5-0.2-0.8-0.3c-0.4,0.1-0.9,0.2-1.3,0.2c-1.6,0-2.8-0.6-3.6-1.6c-0.6,0-1.2-0.1-1.8-0.1
  	c-7.3-0.6-14.2-2.6-21.4-3.5c-9.7-1.3-19.7-0.8-29.5-1c-7.1-0.2-11.7-2-16.6-6.2c-0.4-0.1-0.8-0.3-1.1-0.5c-1-0.2-1.9-0.7-2.5-1.4
  	l-3.8-0.2c7.1,5.3,17.8,11.4,31,11c3.5-0.1,3.9-0.6,8-1c15.1-1.6,26,3.1,44,9c18.4,6,27.6,9,31,9c20.2-0.1,37.1-12.8,46-5
  	c1.9,1.7,2.6,3.6,5,4c6.2,1,12.1-10.4,16-15c1-1.1,2.1-2.2,3.5-3.1L180.9,76.2z"/>
  <g>
  	<g>
  		<path d="M188.3,74.7c-3-0.5-6.5-0.6-8.1,2.4c-0.9,1.7,1.7,3.2,2.6,1.5c0.9-1.7,3.2-1.3,4.7-1C189.4,77.9,190.2,75.1,188.3,74.7
  			L188.3,74.7z"/>
  	</g>
  </g>
  <g>
  	<g>
  		<path d="M193.4,75.1c-3.7,0-7.5,0-11.2,0c-1.9,0-1.9,3,0,3c3.7,0,7.5,0,11.2,0C195.3,78.1,195.3,75.1,193.4,75.1L193.4,75.1z"/>
  	</g>
  </g>
  <g>
  	<g>
  		<path d="M189.3,73.9c-6.8,0.8-11.2,4.8-14.7,10.4c-1,1.6,1.6,3.2,2.6,1.5c2.9-4.7,6.4-8.3,12.1-8.9
  			C191.2,76.7,191.2,73.7,189.3,73.9L189.3,73.9z"/>
  	</g>
  </g>
  <path d="M78.2,59.6c-0.7,0.4-1.5,0.6-2.4,0.6c-0.6,0-1.2-0.1-1.7-0.3c-1,0-1.8-0.3-2.5-0.7c-0.7,0.4-1.6,0.7-2.6,0.7
  	c-1,0-1.8-0.2-2.5-0.6c-0.3,0-0.5,0.1-0.8,0.1c-0.7,0-1.3-0.1-1.8-0.3c-0.5,0.2-1.1,0.3-1.8,0.3c-1.7,0-2.9-0.7-3.7-1.6
  	c-0.7,0.3-1.4,0.6-2.3,0.6c-0.9,0-1.7-0.2-2.4-0.6C53.3,57.9,52.7,58,52,58c-7,0-13.4-3-20.4-3.4c-6-0.3-12.2-0.4-18-2.6
  	c-0.3-0.1-0.6-0.3-0.9-0.4l-13.4-0.2c43.7,7.6,74.8,11.8,82.3,10C80.2,61.4,79,60.7,78.2,59.6z"/>
  <path d="M240.2,54.4c-0.7,0.4-1.5,0.6-2.4,0.6c-0.7,0-1.4-0.1-1.9-0.4c-0.6,0.2-1.2,0.4-1.9,0.4c-0.7,0.3-1.4,0.6-2.2,0.5
  	c-0.2,0-0.3,0-0.5,0c-0.8,1.1-2.1,1.9-3.9,1.9c-1,0-1.9-0.3-2.6-0.7c-0.6,0.3-1.3,0.5-2,0.5c-0.8,0.6-1.8,1.1-3.1,1.1
  	c-10.7,0-21.5-0.5-32.2-0.2c-4.5,0.1-8.8,0.7-13.1,1.9c-0.1,0-0.2,0.1-0.4,0.1c-0.8,0.9-2,1.5-3.6,1.5c-0.4,0-0.8-0.1-1.2-0.1
  	c-1.1,0.4-2.1,1-2.9,1.7c-1.3,1.2-2.7,1.5-4.1,1.3c-0.8,0.9-2,1.5-3.6,1.5c-0.8,0-1.6-0.2-2.2-0.5c-0.6,0.3-1.4,0.5-2.2,0.5
  	c-1,0-1.9-0.3-2.6-0.7c-0.7,0.4-1.6,0.7-2.6,0.7c-1.4,0-2.5-0.5-3.3-1.2c-0.8,0.7-1.9,1.2-3.3,1.2c-1.5,0-2.6-0.5-3.4-1.4
  	c-0.8,0.8-1.9,1.4-3.4,1.4c-1.2,0-2.3-0.4-3-1c-0.8,0.6-1.8,1-3,1c-1.3,0-2.4-0.4-3.2-1.1c-0.8,0.7-1.8,1.1-3.1,1.1
  	c-1,0-1.9-0.3-2.6-0.7c-0.7,0.4-1.6,0.7-2.6,0.7c-0.7,0-1.4-0.1-1.9-0.4c-0.6,0.2-1.2,0.4-1.9,0.4c-1.3,0-2.3-0.4-3.1-1
  	c-0.7,0.5-1.6,0.8-2.7,0.8c-1.5,0-2.6-0.5-3.4-1.4c-0.4-0.2-0.7-0.4-1-0.7c-0.4,0.1-0.8,0.2-1.3,0.2c-1.9,0-3.3-0.9-4.1-2.2
  	c0,0,0,0,0,0c-1.4,0-2.4-0.4-3.2-1.1c-0.7,0.4-1.5,0.6-2.3,0.6h-0.5c-1,0-1.9-0.3-2.7-0.8c-1.4-0.1-2.5-0.8-3.2-1.7
  	c-0.1,0.2-0.2,0.5-0.3,0.7c3.6,2.3,9.3,6.3,16.2,8.3c8.4,2.5,9.5-0.6,26,0c14.8,0.5,15.5,3,25,2c10.1-1.1,12-4.1,23-7
  	c12.1-3.1,17.9-1.6,32-2c9.9-0.3,23.9-1.6,41-6L240.2,54.4z"/>
  <g>
  	<g>
  		<path d="M93.3,60c-3-0.9-5.7-2.1-8.8-2.4c-3.4-0.4-6.8-0.1-10.2,0.1c-1.9,0.1-1.9,3.1,0,3c3-0.2,6-0.5,8.9-0.2
  			c3.3,0.3,6.1,1.5,9.3,2.4C94.3,63.4,95.1,60.5,93.3,60L93.3,60z"/>
  	</g>
  </g>
  <g>
  	<g>
  		<path d="M84.6,57.8c-3.3-0.3-6.4,0.6-9.7,0.9c-3.5,0.4-7.1,0.3-10.6,0.1c-1.9-0.1-1.9,2.9,0,3c3.5,0.3,7.1,0.3,10.6-0.1
  			c3.2-0.3,6.4-1.2,9.7-0.9C86.6,61,86.5,58,84.6,57.8L84.6,57.8z"/>
  	</g>
  </g>
  <g>
  	<g>
  		<path d="M84.4,58.6c-1.6,0-3.1,0-4.7,0c-1.9,0-1.9,3,0,3c1.6,0,3.1,0,4.7,0C86.3,61.6,86.3,58.6,84.4,58.6L84.4,58.6z"/>
  	</g>
  </g>
  <g>
  	<g>
  		<path d="M87.6,58.6c-1.3,0-2.6,0-3.8,0c-1.9,0-1.9,3,0,3c1.3,0,2.6,0,3.8,0C89.6,61.6,89.6,58.6,87.6,58.6L87.6,58.6z"/>
  	</g>
  </g>
  <g>
  	<g>
  		<path d="M92.6,60.9c5.2,3.1,10.5,6,16.6,6.6c7.4,0.7,15,0.2,22.5,0.2c7.6,0,15.2,0.3,22.7,0c6.4-0.2,11.5-2.2,17.1-5.3
  			c1.7-0.9,0.2-3.5-1.5-2.6c-6.4,3.5-11.9,4.9-19.3,4.9c-6.4,0-12.7,0-19.1,0c-6,0-12,0-18.1,0c-7.5-0.1-13.2-2.6-19.5-6.3
  			C92.4,57.3,90.9,59.9,92.6,60.9L92.6,60.9z"/>
  	</g>
  </g>
  <g>
  	<g>
  		<path d="M94,58.2c-3.6-0.7-7.2-0.9-10.8-0.7c-1.9,0.1-1.9,3.1,0,3c3.4-0.3,6.7-0.1,10,0.5C95.1,61.5,95.9,58.6,94,58.2L94,58.2z"
  			/>
  	</g>
  </g>
  <g>
  	<g>
  		<path d="M78.1,57.2c-5.6,0-11.3,0.3-16.9,0c-4.7-0.2-9-1.3-13.7-1.1c-1.9,0.1-1.9,3.1,0,3c4.7-0.2,9.1,0.9,13.7,1.1
  			c5.6,0.2,11.3,0,16.9,0C80,60.2,80,57.2,78.1,57.2L78.1,57.2z"/>
  	</g>
  </g>
  <g>
  	<g>
  		<path d="M48.5,55.1c-4.2,0-8.3-0.4-12.4-1.3c-1.9-0.4-2.7,2.5-0.8,2.9c4.4,1,8.8,1.5,13.2,1.4C50.4,58.1,50.4,55.1,48.5,55.1
  			L48.5,55.1z"/>
  	</g>
  </g>
  <g>
  	<g>
  		<path d="M53.3,56.7c-0.8,0.1-1.6-0.1-2.1-0.7c-1.4-1.3-3.5,0.8-2.1,2.1c1.4,1.3,3.2,1.8,5,1.4c0.8-0.2,1.2-1.1,1-1.8
  			C54.9,56.9,54.1,56.6,53.3,56.7L53.3,56.7z"/>
  	</g>
  </g>
  <g>
  	<g>
  		<path d="M33.9,52.7c-6.5,0.7-12.8,0.1-19.1-1.6c-1.9-0.5-2.7,2.4-0.8,2.9c6.5,1.8,13.1,2.4,19.9,1.7
  			C35.8,55.5,35.9,52.5,33.9,52.7L33.9,52.7z"/>
  	</g>
  </g>
  <g>
  	<g>
  		<path d="M175.3,59.2c-0.8,0-1.6,0-2.5,0c-0.8,0-1.5,0.7-1.5,1.5c0,0.8,0.7,1.5,1.5,1.5c0.8,0,1.6,0,2.5,0c0.8,0,1.5-0.7,1.5-1.5
  			C176.8,59.9,176.2,59.2,175.3,59.2L175.3,59.2z"/>
  	</g>
  </g>
  <g>
  	<g>
  		<path d="M232.1,55.2c-4.9-0.7-9.5-0.1-14,2c-1.7,0.8-0.2,3.4,1.5,2.6c3.7-1.7,7.7-2.3,11.7-1.7C233.2,58.4,234,55.5,232.1,55.2
  			L232.1,55.2z"/>
  	</g>
  </g>
  <path d="M212.4,117.1c-1-0.2-2-0.5-2.9-0.8c-1.2,0.3-2.5,0.2-3.7-0.5c-0.2,0-0.4,0.1-0.5,0.1c-9.6,0.8-20.1-4.8-29.4-1
  	c-0.9,0.4-1.7,0.5-2.4,0.3c-8.8,2.2-21.3,3.2-29.1-0.3c-0.6-0.3-1.1-0.6-1.7-0.9c-0.8,0.3-1.8,0.4-2.9,0.4c-1.6,0-2.9-0.3-3.9-0.9
  	c-0.7,0-1.4,0.1-2.2,0.1c-3.1,0-5-1.2-5.9-2.8c-0.6,0-1.2-0.1-1.8-0.2c-0.6,0.1-1.2,0.2-1.8,0.2c-2.3,0-4-0.7-5.1-1.8
  	c-0.5,0.1-1,0.1-1.6,0.1c-3.1,0-5.1-1.2-6-2.9c-0.4-0.1-0.7-0.2-1.1-0.3c-0.6,0.1-1.2,0.2-1.8,0.2c-2.2,0-3.8-0.6-4.9-1.6
  	c-0.9,0-1.7-0.1-2.5-0.1c-1.9-0.1-3.7-0.4-5.5-0.9c-3.7,0.1-7.4,0.3-11-0.5c-3.5-0.8-6.7-2.5-10.2-3.3c-7.5-1.7-15.6,0.1-23.1,0.2
  	c-0.6,0-1.1-0.1-1.6-0.2c-0.6,0.8-1.5,1.5-2.6,1.7c-0.8,1.2-2.1,2.1-4,2.1c-0.2,0-0.4,0-0.5,0c-0.5,0.5-1.2,0.9-2,1.2
  	c-3.9,1.4-8.1,0.8-11.5-1.6c-0.1-0.1-0.2-0.2-0.3-0.3c-6.1-0.4-12.3-1.7-15.8-5.5c-1-0.2-1.8-0.7-2.4-1.4c-1-0.3-1.9-0.8-2.7-1.6
  	C7.3,94,7,93.6,6.8,93.2c-1-0.3-1.8-0.8-2.3-1.5l-5-0.2C9.1,96.8,23.1,107.4,41,107c4.8-0.1,5.9-5.1,11.4-5.5
  	c20.5-1.6,35.3,3.1,59.7,9c25,6,37.4,9,42.1,9c9.7,0,35.5-4.4,43.7-2.5C214.1,120.7,213.4,118.3,212.4,117.1z"/>
  <path d="M225.7,115.7c-0.9,0-1.7-0.1-2.4-0.3c-0.6,0.7-1.4,1.3-2.5,1.6c-2.9,0.8-5.5,0.7-8,0.2c0.3,0.2,0.7,0.5,1.3,0.8
  	c2.6,1.7,6.3,0.1,9.5,0.5c0,0,0.1,0,0.2,0.1c0.4-0.9,1.1-1.6,1.9-2.1C225.6,116.2,225.6,115.9,225.7,115.7
  	C225.7,115.7,225.7,115.7,225.7,115.7z"/>
  <path d="M250,100.4l-5.6-0.2c-0.3,2.1-2.2,4-5.5,4.3c-0.3,0.5-0.7,0.9-1.1,1.3c-0.1,1-0.6,2-1.4,2.7c3.6-1.8,7.2-3.5,8.9-5
  	C246.5,102.4,248.1,101.3,250,100.4z"/>
  <path d="M232.1,111.9c0.5-0.3,0.9-0.7,1.2-1.1c0.2-0.3,0.4-0.6,0.5-0.9c1.1-0.3,1.9-0.8,2.6-1.4c-4.7,2.4-9.6,4.9-10.6,7.2
  	C229.4,115.7,231.5,113.9,232.1,111.9z"/>
  <path class="st1" d="M250,118c-13,0-26-2-39,1c-43,7-84,12-127,11c-28-6-56-9-84-14c0.1,0.2,18.2,3.2,0.4,0.5"/>
  <g>
  	<g>
  		<path d="M104.3,89.4c-0.8-0.1-1.7-0.6-2.2-1.3c-0.5-0.7-1.3-1-2.1-0.5c-0.7,0.4-1,1.4-0.5,2.1c1.2,1.6,2.8,2.6,4.8,2.8
  			c0.8,0.1,1.5-0.8,1.5-1.5C105.8,90,105.2,89.5,104.3,89.4L104.3,89.4z"/>
  	</g>
  </g>
  <g>
  	<g>
  		<path d="M102,89.9c-0.9-2.3-2.6-3.4-4.9-4.1c-3.3-0.9-6.4-1.9-9.4-3.6c-1.7-1-3.2,1.6-1.5,2.6c1.9,1.1,3.8,2,5.8,2.7
  			c2,0.7,6.3,1,7.1,3.2C99.8,92.5,102.7,91.7,102,89.9L102,89.9z"/>
  	</g>
  </g>
  <g>
  	<g>
  		<path d="M86,82.3c-2.5,0-4.9-0.8-6.9-2.4c-1.5-1.2-3.6,0.9-2.1,2.1c2.6,2.1,5.6,3.3,9,3.3C87.9,85.3,87.9,82.3,86,82.3L86,82.3z"
  			/>
  	</g>
  </g>
  <path d="M-0.1,136.8c1.2,0.2,2.3,0.5,3.5,0.8c1.4-0.3,2.9-0.2,4.4,0.5c0.2,0,0.4-0.1,0.6-0.1c11.4-0.9,23.7,4.6,34.6,0.7
  	c1-0.4,2-0.5,2.9-0.4c10.4-2.3,25.1-3.4,34.3,0c0.7,0.3,1.4,0.6,2,0.9c1-0.3,2.1-0.5,3.4-0.5c1.9,0,3.4,0.3,4.6,0.8
  	c0.8,0,1.7-0.1,2.5-0.1c3.6-0.1,5.9,1.1,7,2.7c0.7,0,1.4,0.1,2.1,0.1c0.7-0.1,1.4-0.2,2.2-0.2c2.8,0,4.8,0.7,6.1,1.7
  	c0.6-0.1,1.2-0.1,1.9-0.1c3.6,0,6,1.2,7.1,2.8c0.4,0.1,0.9,0.2,1.3,0.3c0.7-0.1,1.4-0.2,2.1-0.2c2.6,0,4.5,0.6,5.8,1.5
  	c1,0,2,0.1,2.9,0.1c2.2,0.1,4.4,0.4,6.5,0.9c4.4-0.1,8.7-0.4,13,0.4c4.1,0.8,7.9,2.4,12.1,3.2c8.8,1.6,18.3-0.3,27.2-0.4
  	c0.7,0,1.3,0.1,1.9,0.2c0.7-0.8,1.7-1.5,3.1-1.8c0.9-1.2,2.5-2.1,4.7-2.1c0.2,0,0.4,0,0.6,0c0.6-0.5,1.4-0.9,2.3-1.2
  	c4.6-1.5,9.6-0.9,13.6,1.5c0.1,0.1,0.3,0.2,0.4,0.3c7.2,0.4,14.5,1.6,18.7,5.3c1.2,0.2,2.2,0.7,2.9,1.4c1.1,0.3,2.2,0.8,3.2,1.6
  	c0.4,0.3,0.7,0.7,1,1.2c1.2,0.2,2.1,0.8,2.8,1.5l5.9,0.1c-11.3-5.2-28-15.6-49.1-15.1c-5.6,0.1-6.9,5.1-13.4,5.6
  	c-24.1,1.8-41.7-2.8-70.5-8.4c-29.5-5.8-44.2-8.7-49.7-8.6c-11.5,0.1-41.8,4.8-51.5,2.9C-2.1,133.2-1.3,135.6-0.1,136.8z"/>
  <path d="M6,166c0.4-2,2.3-3.9,5.6-4.1c0.3-0.5,0.7-0.9,1.2-1.3c0.3-1.8,1.6-3.4,4.1-4.1c0.1-0.3,0.3-0.6,0.5-0.9
  	c0.3-0.4,0.7-0.8,1.2-1.1c0.6-2,2.8-3.8,6.5-3.7c3.3,0.1,5.3,1.5,6.1,3.3c1.7,0.3,2.9,1.1,3.7,2c0.5-0.1,1.1-0.1,1.7-0.1
  	c0.5,0,0.9,0.1,1.3,0.1c0.4,0,0.8-0.1,1.3-0.1c2.1,0,3.7,0.7,4.8,1.6c1-0.6,2.4-0.9,4.1-0.9c1.1,0,2,0.2,2.8,0.5
  	c0.8-0.2,1.7-0.4,2.8-0.4c0.8,0,1.6,0.1,2.2,0.3c0.9-0.3,1.9-0.5,3.1-0.5c0.8,0,1.7,0,2.5,0.1c4.5-1.2,8.9-2.5,13.4-3.7
  	c8.8-2.4,23.1-3.7,31.5,0.3c0.6,0.3,1.1,0.6,1.6,1c0.8-0.3,1.8-0.4,2.9-0.4c1.6,0,2.9,0.4,3.9,1c0.7,0,1.4,0,2.2,0
  	c3.1,0,5,1.3,5.9,2.9c0.6,0,1.2,0.1,1.8,0.2c0.6-0.1,1.2-0.1,1.8-0.1c2.3,0,4,0.8,5.1,1.9c0.5-0.1,1-0.1,1.6-0.1
  	c3.1,0.1,5.1,1.4,5.9,3c0.4,0.1,0.7,0.2,1.1,0.3c0.6-0.1,1.2-0.1,1.8-0.1c2.2,0,3.8,0.7,4.9,1.7c0.9,0.1,1.7,0.1,2.5,0.2
  	c9.9,0.8,19.2,3,28.9,4.1c13.1,1.6,26.7,1.4,40,1.9c9.6,0.4,15.9,2.4,22.4,6.7c0.6,0.1,1.1,0.3,1.5,0.5c1.4,0.2,2.5,0.8,3.3,1.5
  	l5.2,0.3c-9.5-5.5-23.9-11.9-41.8-11.9c-4.8,0-5.3,0.5-10.9,0.8c-20.5,1.2-35.2-3.9-59.5-10.2c-24.8-6.5-37.2-9.8-41.9-9.9
  	c-27.4-0.5-50.6,11.7-62.5,3.7c-2.6-1.8-3.5-3.7-6.7-4.1c-8.4-1.2-16.6,10.1-22,14.5c-1.3,1.1-2.9,2.1-4.8,3L6,166z"/>
  <path d="M225.4,196.9c-12.8-2.9-14.6,0.1-39.9-1.2c-22.7-1.2-23.7-3.7-38.3-3.1c-15.5,0.6-18.6,3.6-35.5,6
  	c-18.6,2.6-27.6,0.8-49.2,0.5c-7-0.1-15.3,0-24.8,0.5c-0.8,1-2,1.6-3.7,1.5c-0.7,0-1.5-0.1-2.2-0.1c-0.3,0.1-0.7,0.1-1.1,0.1H16.8
  	c-5.6,0.6-11.5,1.2-17.6,2.1l14.3,0.5c1-0.3,2.3-0.5,3.8-0.5c1.1,0,2.1,0.2,2.9,0.4c0.9-0.2,1.8-0.3,2.9-0.3c1-0.3,2.2-0.5,3.4-0.4
  	c0.3,0,0.5,0,0.8,0c1.2-1.1,3.2-1.8,6-1.8c1.6,0,2.8,0.4,3.9,0.8c1-0.3,2-0.4,3.1-0.4c1.2-0.6,2.8-1,4.8-0.9
  	c16.5,0.5,33,1.5,49.5,1.7c6.9,0.1,13.5-0.3,20.2-1.3c0.2,0,0.4-0.1,0.6-0.1c1.3-0.9,3.1-1.4,5.6-1.4c0.7,0,1.3,0.1,1.9,0.2
  	c1.7-0.4,3.3-0.9,4.5-1.6c2-1.1,4.3-1.4,6.3-1.1c1.3-0.9,3.1-1.4,5.5-1.4c1.3,0,2.4,0.2,3.3,0.6c1-0.3,2.1-0.4,3.4-0.4
  	c1.6,0,2.9,0.4,4,0.8c1.1-0.4,2.4-0.6,4-0.6c2.2,0.1,3.8,0.6,5,1.4c1.2-0.7,2.9-1.1,5.1-1.1c2.3,0.1,4,0.7,5.2,1.5
  	c1.3-0.8,3-1.3,5.3-1.2c1.9,0.1,3.4,0.5,4.6,1.1c1.2-0.6,2.7-0.9,4.7-0.8c2,0.1,3.6,0.5,4.8,1.2c1.2-0.6,2.8-1,4.9-1
  	c1.6,0,2.9,0.4,4,0.8c1.1-0.4,2.4-0.6,4-0.6c1.1,0,2.1,0.2,3,0.4c0.9-0.2,1.8-0.3,2.9-0.3c2,0.1,3.5,0.5,4.7,1.2
  	c1.1-0.4,2.5-0.7,4.2-0.6c2.3,0.1,4,0.7,5.2,1.5c0.6,0.2,1.1,0.5,1.5,0.8c0.6-0.1,1.3-0.1,2-0.1c3,0.1,5,1.1,6.2,2.4c0,0,0,0,0.1,0
  	c2.1,0.1,3.7,0.6,4.9,1.3c1.1-0.3,2.3-0.5,3.5-0.5l0.8,0c1.6,0,3,0.4,4.2,1c2.2,0.2,3.8,0.9,4.8,1.8c0.1-0.2,0.3-0.5,0.5-0.7
  	C244.5,203.4,235.8,199.2,225.4,196.9z"/>
  <g>
  	<g>
  		<path d="M222,197c-6,0.7-12-1.2-18.1-1.3c-6.3-0.2-12.6-0.2-18.9-0.3c-1.9,0-1.9,3,0,3c6.3,0.1,12.6,0.1,18.9,0.3
  			c6.1,0.2,12,2.1,18.1,1.3C223.9,199.8,223.9,196.8,222,197L222,197z"/>
  	</g>
  </g>
  <g>
  	<g>
  		<path d="M184.2,195.4c-5.4,0-10.8,0-16.2,0.1c-5.6,0-11.5,0.5-16.9-1.3c-1.8-0.6-2.6,2.3-0.8,2.9c5.1,1.7,10.4,1.4,15.8,1.4
  			c6,0,12.1,0,18.1-0.1C186.1,198.4,186.1,195.4,184.2,195.4L184.2,195.4z"/>
  	</g>
  </g>
  <g>
  	<g>
  		<path d="M114,201.2c5.5,1.2,9.7-2,14.9-3.3c3.1-0.8,6-0.5,9.1-0.6c3.1-0.1,6.1-1.4,9.2-1c1.9,0.2,1.9-2.8,0-3
  			c-2.4-0.2-4.2,0.4-6.5,0.7c-3,0.5-6,0-9.1,0.4c-5.5,0.6-11.3,5.1-16.8,3.9C112.9,197.9,112.1,200.8,114,201.2L114,201.2z"/>
  	</g>
  </g>
  <g>
  	<g>
  		<path d="M33.8,200.1c-6.4,0-12.8,0-19.2,0c-1.9,0-1.9,3,0,3c6.4,0,12.8,0,19.2,0C35.7,203.1,35.7,200.1,33.8,200.1L33.8,200.1z"/>
  	</g>
  </g>
  <g>
  	<g>
  		<path d="M38.5,199.1c-1.3-0.3-2.7-0.1-3.9,0.6c-0.7,0.4-1,1.3-0.5,2.1c0.4,0.7,1.4,1,2.1,0.5c0.6-0.4,1.1-0.5,1.6-0.3
  			c0.8,0.2,1.6-0.2,1.8-1C39.8,200.2,39.3,199.3,38.5,199.1L38.5,199.1z"/>
  	</g>
  </g>
  <g>
  	<g>
  		<path d="M14.9,200.7c-1.1,0-2.2,0-3.3,0c-1.9,0-1.9,3,0,3c1.1,0,2.2,0,3.3,0C16.8,203.7,16.8,200.7,14.9,200.7L14.9,200.7z"/>
  	</g>
  </g>
  <g>
  	<g>
  		<path d="M13.5,199.8c-4.6-0.4-9.1,3-13.6,1.7c-1.9-0.5-2.6,2.3-0.8,2.9c5,1.5,9.4-2,14.4-1.6C15.4,203,15.4,200,13.5,199.8
  			L13.5,199.8z"/>
  	</g>
  </g>
  <path class="st1" d="M-0.1,185.9c13,0.2,26,2.5,39-0.3c43.1-6.2,84.2-10.5,127.2-8.7c27.9,6.5,55.8,10,83.7,15.5
  	c-0.1-0.2-18.1-3.6-0.4-0.5"/>
  <g>
  	<g>
  		<path d="M243.6,99.5c-4.9,2.8-9.4,6.1-13.8,9.8c-2.5,2.1-4.8,4.3-7.7,5.6c-3.6,1.6-7.6,1.6-11.5,1.6c-1.9,0-1.9,3,0,3
  			c6.3,0,11.9-0.5,17.1-4.5c5.8-4.4,11-9.2,17.4-12.8C246.8,101.2,245.3,98.6,243.6,99.5L243.6,99.5z"/>
  	</g>
  </g>
  </svg>

</svg>
